<?xml version="1.0" encoding="UTF-8"?>
<svg id="CCC_App_Logo" data-name="CCC App Logo" xmlns="http://www.w3.org/2000/svg" viewBox="0 0 507.19 720">
  <defs>
    <style>
      .cls-1 {
        fill: #2a98eb;
      }

      .cls-2 {
        fill: #0472c9;
      }

      .cls-3 {
        fill: #fd9344;
      }

      .cls-4 {
        fill: #083b6c;
      }

      .cls-5 {
        fill: #038fe7;
      }
    </style>
  </defs>
  <g id="Outside_Layer" data-name="Outside Layer">
    <path class="cls-3" d="M253.52,555.45v-62.24c10.59.12,20.16-3.15,29.62-8.44l133.12-74.48c5.32-2.98,9.61-5.15,14.25-9.44,10.46-9.7,18.89-23.36,18.93-38.6l.42-167.92c.02-7.25,3.97-13.07,9.05-17.68,3.98-3.61,8.76-5.6,13.49-8.27l32.29-18.27c2.2,5.48,2.53,10.73,2.53,16.62l-.19,228.19c0,11.17-5.39,21.13-12.14,29.21-5.04,6.03-11.16,9.54-17.95,13.32l-82.2,45.72-65.13,36.33-52.78,29.65c-7.51,4.22-15.08,6.33-23.29,6.33Z"/>
    <path class="cls-4" d="M484,122.7l-41.04-23.15L278.37,7.17c-5.99-3.36-11.85-5.9-18.41-6.63v-.54h-13.02v.54c-5.78.95-11.06,2.72-16.52,5.79l-113.26,63.56L27.5,120.01C11.36,129.03,0,144.82,0,163.98l.04,230.37c0,11.5,5.4,21.69,12.36,29.93,4.64,5.49,9.95,8.93,16.21,12.41l97.89,54.43,107.17,59.8c6.48,3.62,13.08,4.54,19.85,4.54v-62.24c-11.03-.13-20.72-3.77-30.46-9.23l-130.26-72.95c-6.94-3.89-13.22-7.24-18.78-13.11-9.41-9.94-16.24-22.87-16.25-37.19l-.13-162.61c0-7.14,1.98-13.68,4.39-20.06,4.52-11.95,12.99-21.31,24.12-27.63l139.62-79.26c18.09-10.27,38.26-9.97,56.21.21l144.6,82.02c7.31,4.15,16.94,2.26,23.66-1.57l41.2-23.46c-2.64-2.63-4.68-4.13-7.43-5.68Z"/>
  </g>
  <g id="Center_Icon" data-name="Center Icon">
    <path class="cls-1" d="M417.9,178.49l-66.17,37.33-13.34,7.53c-.88.5-1.94.72-1.79,1.85-3.77-2.42-6.99-5.38-10.77-8.38l-62.8-49.78c-5.32-4.22-11.83-4.13-17.2,0l-75.26,59.31c.18-.3.41-.64.45-.94.06-.42-.12-.82-.73-1.17l-64.23-36.41-14.22-8.19c-.76-.44-1.44-.69-2.18-.42-1.13.41-6.09,11.13-6.45,14.19l.02,168.34,1.47,7.34c-.16.29-.93-.22-1.02-.68l-1.54-7.75.03-165.6c0-3.47,1.55-6.19,2.67-8.97,3.03-7.53,8.11-12.94,15.14-16.91l138.94-78.43c8.43-4.76,20.99-4.88,29.45-.11l136.52,77c5.53,3.12,9.54,6.12,12.99,10.85Z"/>
    <path class="cls-5" d="M253.51,467.6l.23-183.08c0-1.44.56-2.21-.73-2.83-1.8.76-2.86,2.06-4.17,3.31-5.95,5.69-11.2,11.57-15.56,18.67-5.67,9.24-9.78,19.53-9.88,30.55l-.35,40.71c-.03,3.2-3.96,5.31-6.91,5.31h-44.43c-4.8,0-7.59-3.61-7.73-8.02l-1.02-31.03c-.74-22.53-2.41-88.41.49-107.45.47-3.1,5.7-4.84,7.12-7.4.18-.3.41-.64.45-.94.06-.42-.12-.82-.73-1.17l-64.23-36.41-14.22-8.19c-.76-.44-1.44-.69-2.18-.42-1.13.41-6.09,11.13-6.45,14.19l.02,168.34,1.47,7.34c.03.14.06.31.04.46-.23,2.43,3.91,7.84,5.01,8.68.18.13.34.33.49.5,8.09,9.32,7.22,6.02,15.12,11.47,1.59,1.1,3.84,1.4,5.35,2.84,1.85,1.77,4.09,2.38,6.27,3.6,3.61,2.02,5.37,3.38,9.11,5.01,3.81,1.66,12.07,7.65,19.51,10.79.13.05.32.02.46.02-.28,1.23,1.69,1.29,3.19,2.08-1.22.07,8.1,4.25,5.39,3.34,2.11.72,3.47,1.85,5.28,2.94,1.95,1.17,4.1,2.07,6.02,3.15l4.54,2.55c3.36,1.88,7.52,3.95,10.1,5.71-.24-.16,7.46,3.97,8.04,4.32l4.04,2.46c1.92,1.17,3.84,1.89,5.77,3l5.16,2.98,4.61,2.43c1.38.73,2.71,1.66,4.04,2.43l3.77,2.17c3.62,2.08,23.15,12.67,24.46,13.62,3.04,2.19,14.47,4.37,17.45,2.27-1.45.02-2.96-.32-4.42-.25Z"/>
    <path class="cls-2" d="M417.9,178.49l-66.17,37.33-13.34,7.53c-.88.5-1.94.72-1.79,1.85l5.78,5.08c1.19,1.01,2.59,2.45,2.67,4.23.63,13.25.71,26.16.43,39.48l-.72,34.75-2.25,65.61c-.11,3.13-3.51,5.8-6.5,5.8l-46.45-.05c-4.01,0-6.5-3.77-6.52-7.34l-.18-38.56c-.06-13.34-5.01-25.78-13.07-36.17-4.61-5.95-9.59-10.95-15.12-15.98-.52-.48-1.2-.56-1.67-.36,1.29.62.73,1.39.73,2.83l-.23,183.08c1.46-.06,2.96.27,4.42.25h1.09c.7.61,1.62.05,2.17-.55l1.09-.1c.41-.04.88-.05,1.09-.46.17.03.37-.06.54-.04,2.22.23,3.92-1.66,5.97-3.2.13-.06.4-.08.54-.05,1.53.3,2.34-1.17,3.62-1.84-.12.06,8.85-4.61,6.81-4.1,1.21-.3,2.13-.83,3.5-1.6l123.15-68.79c9.16-5.12,17.22-14.58,17.24-25.87l.3-164.73c.01-7.31-3.45-12.99-7.14-18.03Z"/>
  </g>
  <g>
    <path class="cls-4" d="M20.64,682.45c-7.06-7.67-10.59-19.62-10.59-35.84,0-31.22,14.64-46.82,43.93-46.82,4.38,0,8.86.46,13.42,1.38,4.56.92,8.11,2.13,10.65,3.62,2.28,1.32,3.42,2.72,3.42,4.21,0,1.23-.48,2.83-1.45,4.8-.97,1.97-2.13,3.73-3.49,5.26-1.36,1.53-2.57,2.3-3.62,2.3-.26,0-1.32-.4-3.16-1.18-1.84-.79-4.08-1.49-6.71-2.11-2.63-.61-5.79-.92-9.47-.92-7.72,0-13.44,2.46-17.17,7.37-3.73,4.91-5.59,12.32-5.59,22.23,0,19.99,7.5,29.99,22.49,29.99,3.95,0,7.37-.39,10.26-1.18,2.89-.79,5.7-1.8,8.42-3.02,1.4-.7,2.37-1.05,2.89-1.05,1.32,0,2.56.75,3.75,2.24,1.18,1.49,2.15,3.18,2.89,5.06.74,1.89,1.12,3.27,1.12,4.15,0,2.28-1.53,4.3-4.6,6.05-2.89,1.67-6.71,2.92-11.44,3.75-4.74.83-9.16,1.25-13.29,1.25-14.73,0-25.63-3.84-32.69-11.51Z"/>
    <path class="cls-4" d="M102.06,682.45c-7.06-7.67-10.59-19.62-10.59-35.84,0-31.22,14.64-46.82,43.93-46.82,4.38,0,8.86.46,13.42,1.38,4.56.92,8.11,2.13,10.65,3.62,2.28,1.32,3.42,2.72,3.42,4.21,0,1.23-.48,2.83-1.45,4.8-.97,1.97-2.13,3.73-3.49,5.26-1.36,1.53-2.57,2.3-3.62,2.3-.26,0-1.32-.4-3.16-1.18-1.84-.79-4.08-1.49-6.71-2.11-2.63-.61-5.79-.92-9.47-.92-7.72,0-13.44,2.46-17.17,7.37-3.73,4.91-5.59,12.32-5.59,22.23,0,19.99,7.5,29.99,22.49,29.99,3.95,0,7.37-.39,10.26-1.18,2.89-.79,5.7-1.8,8.42-3.02,1.4-.7,2.37-1.05,2.89-1.05,1.32,0,2.56.75,3.75,2.24,1.18,1.49,2.15,3.18,2.89,5.06.74,1.89,1.12,3.27,1.12,4.15,0,2.28-1.53,4.3-4.6,6.05-2.89,1.67-6.71,2.92-11.44,3.75-4.74.83-9.16,1.25-13.29,1.25-14.73,0-25.63-3.84-32.69-11.51Z"/>
    <path class="cls-4" d="M183.48,682.45c-7.06-7.67-10.59-19.62-10.59-35.84,0-31.22,14.64-46.82,43.93-46.82,4.38,0,8.86.46,13.42,1.38,4.56.92,8.11,2.13,10.65,3.62,2.28,1.32,3.42,2.72,3.42,4.21,0,1.23-.48,2.83-1.45,4.8-.97,1.97-2.13,3.73-3.49,5.26-1.36,1.53-2.57,2.3-3.62,2.3-.26,0-1.32-.4-3.16-1.18-1.84-.79-4.08-1.49-6.71-2.11-2.63-.61-5.79-.92-9.47-.92-7.72,0-13.44,2.46-17.17,7.37-3.73,4.91-5.59,12.32-5.59,22.23,0,19.99,7.5,29.99,22.49,29.99,3.95,0,7.37-.39,10.26-1.18,2.89-.79,5.7-1.8,8.42-3.02,1.4-.7,2.37-1.05,2.89-1.05,1.32,0,2.56.75,3.75,2.24,1.18,1.49,2.15,3.18,2.89,5.06.74,1.89,1.12,3.27,1.12,4.15,0,2.28-1.53,4.3-4.6,6.05-2.89,1.67-6.71,2.92-11.44,3.75-4.74.83-9.16,1.25-13.29,1.25-14.73,0-25.63-3.84-32.69-11.51Z"/>
    <path class="cls-4" d="M279.96,690.27c0-.35.17-1.14.53-2.37l28.94-84.58c.7-1.84,3.2-2.76,7.5-2.76h6.84c4.38,0,6.88.92,7.5,2.76l28.94,84.58c.26.88.39,1.67.39,2.37,0,1.93-2.19,2.89-6.58,2.89h-5.79c-4.3,0-6.75-.92-7.37-2.76l-5.26-16.05h-31.04l-5.26,16.05c-.61,1.84-2.63,2.76-6.05,2.76h-5.26c-5.35,0-8.02-.96-8.02-2.89ZM329.94,656.99l-7.5-23.41c-.62-1.75-1.27-4.56-1.97-8.42h-.53c-.09.53-.29,1.69-.59,3.49-.31,1.8-.77,3.44-1.38,4.93l-7.76,23.41h19.73Z"/>
    <path class="cls-4" d="M369.8,715.79v-68.53c0-3.86-.11-6.82-.33-8.88-.22-2.06-.51-4.36-.86-6.91-.26-1.23-.39-2.15-.39-2.76,0-1.4,1.78-2.45,5.33-3.16,3.55-.7,6.69-1.05,9.4-1.05,1.58,0,2.67.59,3.29,1.78s1.07,2.46,1.38,3.81c.31,1.36.5,2.3.59,2.83,1.58-2.89,3.92-5.26,7.04-7.1,3.11-1.84,6.64-2.76,10.59-2.76,4.73,0,8.96,1.38,12.69,4.14,3.73,2.76,6.64,6.82,8.75,12.17,2.1,5.35,3.16,11.75,3.16,19.2,0,10.88-2.43,19.49-7.3,25.85-4.87,6.36-11.69,9.54-20.46,9.54-5.17,0-9.65-1.36-13.42-4.08v25.91c0,2.81-2.63,4.21-7.89,4.21h-3.68c-5.26,0-7.89-1.4-7.89-4.21ZM410.7,658.57c0-13.06-3.55-19.6-10.65-19.6-4.21,0-7.8,2.59-10.79,7.76v29.33c2.98,1.67,6.05,2.5,9.21,2.5,8.16,0,12.23-6.66,12.23-19.99Z"/>
    <path class="cls-4" d="M445.17,715.79v-68.53c0-3.86-.11-6.82-.33-8.88-.22-2.06-.51-4.36-.86-6.91-.26-1.23-.39-2.15-.39-2.76,0-1.4,1.78-2.45,5.33-3.16,3.55-.7,6.69-1.05,9.4-1.05,1.58,0,2.67.59,3.29,1.78s1.07,2.46,1.38,3.81c.31,1.36.5,2.3.59,2.83,1.58-2.89,3.92-5.26,7.04-7.1,3.11-1.84,6.64-2.76,10.59-2.76,4.73,0,8.96,1.38,12.69,4.14,3.73,2.76,6.64,6.82,8.75,12.17,2.1,5.35,3.16,11.75,3.16,19.2,0,10.88-2.43,19.49-7.3,25.85-4.87,6.36-11.69,9.54-20.46,9.54-5.17,0-9.65-1.36-13.42-4.08v25.91c0,2.81-2.63,4.21-7.89,4.21h-3.68c-5.26,0-7.89-1.4-7.89-4.21ZM486.07,658.57c0-13.06-3.55-19.6-10.65-19.6-4.21,0-7.8,2.59-10.79,7.76v29.33c2.98,1.67,6.05,2.5,9.21,2.5,8.16,0,12.23-6.66,12.23-19.99Z"/>
  </g>
</svg>
